<?xml version="1.0" encoding="utf-8"?>
<!-- Generator: Adobe Illustrator 24.3.0, SVG Export Plug-In . SVG Version: 6.00 Build 0)  -->
<svg version="1.1" id="Layer_1" xmlns="http://www.w3.org/2000/svg" xmlns:xlink="http://www.w3.org/1999/xlink" x="0px" y="0px"
	 viewBox="0 0 2000 2000" style="enable-background:new 0 0 2000 2000;" xml:space="preserve">
<style type="text/css">
	.st0{clip-path:url(#SVGID_2_);fill:url(#SVGID_3_);}
	.st1{clip-path:url(#SVGID_5_);fill:url(#SVGID_6_);}
	.st2{clip-path:url(#SVGID_8_);fill:url(#SVGID_9_);}
	.st3{clip-path:url(#SVGID_11_);fill:url(#SVGID_12_);}
	.st4{clip-path:url(#SVGID_14_);fill:url(#SVGID_15_);}
</style>
<g>
	<defs>
		<path id="SVGID_1_" d="M307.48,1192.3v393.42c72.56,26.1,151.55,43.25,234.52,50V994.42L307.48,1192.3z"/>
	</defs>
	<clipPath id="SVGID_2_">
		<use xlink:href="#SVGID_1_"  style="overflow:visible;"/>
	</clipPath>
	
		<linearGradient id="SVGID_3_" gradientUnits="userSpaceOnUse" x1="-5.121" y1="1992.8966" x2="-2.4593" y2="1992.8966" gradientTransform="matrix(88.1082 0 0 -88.1082 758.6819 176905.6094)">
		<stop  offset="0" style="stop-color:#C42026"/>
		<stop  offset="0.25" style="stop-color:#EE3532"/>
		<stop  offset="0.75" style="stop-color:#EE2C28"/>
		<stop  offset="1" style="stop-color:#C42026"/>
	</linearGradient>
	<rect x="307.48" y="994.42" class="st0" width="234.52" height="641.29"/>
</g>
<g>
	<defs>
		<path id="SVGID_4_" d="M596.97,895.6v743.04c36.74,0.91,74.12-0.15,111.97-3.44c41.95-3.64,82.85-9.89,122.55-18.36V697.73
			L596.97,895.6z"/>
	</defs>
	<clipPath id="SVGID_5_">
		<use xlink:href="#SVGID_4_"  style="overflow:visible;"/>
	</clipPath>
	
		<linearGradient id="SVGID_6_" gradientUnits="userSpaceOnUse" x1="-3.0698" y1="1993.9329" x2="-0.4081" y2="1993.9329" gradientTransform="matrix(88.1082 0 0 -88.1082 867.4405 176850.4844)">
		<stop  offset="0" style="stop-color:#283279"/>
		<stop  offset="0.25" style="stop-color:#3E5AA8"/>
		<stop  offset="0.75" style="stop-color:#3E5AA8"/>
		<stop  offset="1" style="stop-color:#283279"/>
	</linearGradient>
	<rect x="596.97" y="697.73" class="st1" width="234.52" height="941.83"/>
</g>
<g>
	<defs>
		<path id="SVGID_7_" d="M886.45,491.34v1112.13c85.77-23.58,164.83-58.05,234.52-101.1V293.47L886.45,491.34z"/>
	</defs>
	<clipPath id="SVGID_8_">
		<use xlink:href="#SVGID_7_"  style="overflow:visible;"/>
	</clipPath>
	
		<linearGradient id="SVGID_9_" gradientUnits="userSpaceOnUse" x1="-1.0186" y1="1995.4943" x2="1.6431" y2="1995.4943" gradientTransform="matrix(88.1082 0 0 -88.1082 976.1991 176767.875)">
		<stop  offset="0" style="stop-color:#C42026"/>
		<stop  offset="0.25" style="stop-color:#EE3532"/>
		<stop  offset="0.5" style="stop-color:#C42026"/>
		<stop  offset="0.75" style="stop-color:#EE2C28"/>
		<stop  offset="1" style="stop-color:#C42026"/>
	</linearGradient>
	<rect x="886.45" y="293.47" class="st2" width="234.52" height="1310"/>
</g>
<g>
	<defs>
		<path id="SVGID_10_" d="M1531.99,1194.5l-95.56,44.62l-273.32,127.63l200.7,17.09c-131.32,185.25-386.03,310.87-678.75,310.87
			c-289.75,0-542.23-123.1-674.68-305.26c82.42,261.42,387.51,455.5,751.34,455.5c321.05,0,596.39-151.12,713.33-366.27
			l59.99,212.37l71.46-531.33L1531.99,1194.5z"/>
	</defs>
	<clipPath id="SVGID_11_">
		<use xlink:href="#SVGID_10_"  style="overflow:visible;"/>
	</clipPath>
	
		<linearGradient id="SVGID_12_" gradientUnits="userSpaceOnUse" x1="-0.2058" y1="2000.661" x2="2.4559" y2="2000.661" gradientTransform="matrix(-686.2468 447.9272 447.9272 686.2468 -894556.875 -1371957.25)">
		<stop  offset="0" style="stop-color:#C42026"/>
		<stop  offset="0.25" style="stop-color:#EE3532"/>
		<stop  offset="0.5" style="stop-color:#C42026"/>
		<stop  offset="0.75" style="stop-color:#EE2C28"/>
		<stop  offset="1" style="stop-color:#C42026"/>
	</linearGradient>
	<polygon class="st3" points="1920.14,1640.23 487.23,2575.51 -303.27,1364.43 1129.64,429.15 	"/>
</g>
<g>
	<defs>
		<path id="SVGID_13_" d="M161.48,994.42c0,11.47,0.28,22.87,0.71,34.24c17.38-451.19,388.57-811.64,844.02-811.64
			c466.53,0,844.73,378.2,844.73,844.72c0,455.44-360.46,826.64-811.65,844.02c11.37,0.42,22.77,0.7,34.24,0.7
			c503.71,0,912.04-408.33,912.04-912.04S1577.24,82.38,1073.53,82.38C569.82,82.38,161.48,490.71,161.48,994.42"/>
	</defs>
	<clipPath id="SVGID_14_">
		<use xlink:href="#SVGID_13_"  style="overflow:visible;"/>
	</clipPath>
	
		<linearGradient id="SVGID_15_" gradientUnits="userSpaceOnUse" x1="-0.7914" y1="1999.3788" x2="1.8703" y2="1999.3788" gradientTransform="matrix(685.3093 0 0 -685.3093 703.8301 1371187.375)">
		<stop  offset="0" style="stop-color:#283279"/>
		<stop  offset="0.25" style="stop-color:#3E5AA8"/>
		<stop  offset="0.5" style="stop-color:#283279"/>
		<stop  offset="0.75" style="stop-color:#3E5AA8"/>
		<stop  offset="1" style="stop-color:#283279"/>
	</linearGradient>
	<rect x="161.48" y="82.38" class="st4" width="1824.09" height="1824.09"/>
</g>
</svg>
